  <svg
      xmlns="http://www.w3.org/2000/svg"
      width="800"
      height="800"
      version="1.1"
      viewBox="0 0 512.001 512.001"
      xmlSpace="preserve"
    >
      <circle cx="256.005" cy="256.004" r="246.855" fill="#F7B239"></circle>
      <path
        fill="#E09B2D"
        d="M126.307 385.694c-88.801-88.802-95.798-228.426-20.998-325.241a249.063 249.063 0 00-23.858 20.999c-96.401 96.401-96.401 252.698 0 349.099s252.698 96.401 349.099 0a249.34 249.34 0 0020.999-23.858c-96.816 74.799-236.44 67.802-325.242-20.999z"
      ></path>
      <g fill="#F95428">
        <circle cx="100.572" cy="337.948" r="24.119"></circle>
        <circle cx="411.425" cy="337.948" r="24.119"></circle>
      </g>
      <path d="M256 0C114.842 0 .001 114.841.001 256.001s114.841 256 255.999 256c141.159 0 256.001-114.841 256.001-256.001S397.16 0 256 0zm0 493.701c-131.068 0-237.7-106.631-237.7-237.7S124.932 18.299 256 18.299c131.069 0 237.702 106.632 237.702 237.702S387.069 493.701 256 493.701z"></path>
      <path d="M363.356 207.453c-29.99 0-54.387 24.399-54.387 54.387s24.398 54.387 54.387 54.387 54.387-24.399 54.387-54.387-24.397-54.387-54.387-54.387zM148.647 207.453c-29.99 0-54.389 24.399-54.389 54.387s24.399 54.387 54.389 54.387 54.387-24.399 54.387-54.387-24.399-54.387-54.387-54.387zM312.911 318.973a9.15 9.15 0 00-9.15 9.15c0 10.645-8.662 19.307-19.306 19.307s-19.306-8.662-19.306-19.307a9.15 9.15 0 00-18.3 0c0 10.645-8.662 19.307-19.307 19.307s-19.307-8.662-19.307-19.307a9.15 9.15 0 00-18.3 0c0 20.737 16.869 37.606 37.606 37.606 11.358 0 21.555-5.06 28.456-13.046 6.901 7.986 17.099 13.046 28.455 13.046 20.735 0 37.605-16.869 37.605-37.606.004-5.054-4.091-9.15-9.146-9.15z"></path>
      <g fill="#FFF">
        <circle cx="182.406" cy="273.413" r="9.15"></circle>
        <circle cx="400.775" cy="273.413" r="9.15"></circle>
        <circle cx="127.094" cy="290.492" r="9.15"></circle>
        <circle cx="345.463" cy="290.492" r="9.15"></circle>
        <circle cx="378.414" cy="244.439" r="19.325"></circle>
        <circle cx="163.704" cy="244.439" r="19.325"></circle>
      </g>
    </svg>
